PathFileType	4	(X/Y/Z)	C:\Users\Basilio\Documents\Thesis Gigler\squatting_fais\c3dfiles\073\SJ_pre1\markers_experimental.trc
DataRate	CameraRate	NumFrames	NumMarkers	Units	OrigDataRate	OrigDataStartFrame	OrigNumFrames
200.000000	200.000000	4	61	mm	200.000000	864	1383
Frame#	Time	FHD			LBHD			RBHD			C7			T10			CLAV			LSHO			LUUPA			LMUPA			LDUPA			LLEP			LMEP			LRAD			LUL			LRFIN			RSHO			RUPA1			RMUPA			RDUPA			RLEP			RMEP			RRAD			RUL			RUFIN			LASI			RASI			USACR			LSACR			RSACR			LTHI1			LTHI2			LTHI3			LTHI4			LLFC			LMFC			LTIB1			LTIB2			LTIB3			LTIB4			LLMAL			LMMAL			LHEE			LMT1			LMT2			LMT5			RTHI			RTHI2			RTHI3			RTHI4			RLFC			RMFC			RTIB1			RTIB2			RTIB3			RTIB4			RLMAL			RMMAL			RHEE			RMT1			RMT2			RMT5			
		X1	Y1	Z1	X2	Y2	Z2	X3	Y3	Z3	X4	Y4	Z4	X5	Y5	Z5	X6	Y6	Z6	X7	Y7	Z7	X8	Y8	Z8	X9	Y9	Z9	X10	Y10	Z10	X11	Y11	Z11	X12	Y12	Z12	X13	Y13	Z13	X14	Y14	Z14	X15	Y15	Z15	X16	Y16	Z16	X17	Y17	Z17	X18	Y18	Z18	X19	Y19	Z19	X20	Y20	Z20	X21	Y21	Z21	X22	Y22	Z22	X23	Y23	Z23	X24	Y24	Z24	X25	Y25	Z25	X26	Y26	Z26	X27	Y27	Z27	X28	Y28	Z28	X29	Y29	Z29	X30	Y30	Z30	X31	Y31	Z31	X32	Y32	Z32	X33	Y33	Z33	X34	Y34	Z34	X35	Y35	Z35	X36	Y36	Z36	X37	Y37	Z37	X38	Y38	Z38	X39	Y39	Z39	X40	Y40	Z40	X41	Y41	Z41	X42	Y42	Z42	X43	Y43	Z43	X44	Y44	Z44	X45	Y45	Z45	X46	Y46	Z46	X47	Y47	Z47	X48	Y48	Z48	X49	Y49	Z49	X50	Y50	Z50	X51	Y51	Z51	X52	Y52	Z52	X53	Y53	Z53	X54	Y54	Z54	X55	Y55	Z55	X56	Y56	Z56	X57	Y57	Z57	X58	Y58	Z58	X59	Y59	Z59	X60	Y60	Z60	X61	Y61	Z61	

865	4.32	-130.6454315185547	1998.89892578125	-951.187927246094	-262.2130432128907	1951.812622070313	-966.8955688476565	-276.8430480957032	1937.343627929688	-832.797546386719	-311.1956176757813	1856.767700195313	-895.935241699219	-386.8585815429689	1518.656494140625	-899.0325927734377	-187.787109375	1770.471313476563	-898.727233886719	-229.7970428466797	1806.622802734375	-1068.8896484375	-326.3835754394532	1747.227416992188	-1178.442504882813	-313.2385559082032	1700.720581054688	-1192.70458984375	-365.7016601562501	1710.037109375	-1222.691162109375	-418.5626831054689	1630.960693359375	-1276.431030273438	-489.2595214843751	1626.870971679688	-1229.24951171875	-362.2498779296876	1411.269409179688	-1126.1962890625	-341.8669738769532	1388.754638671875	-1192.866821289063	-310.1854858398438	1391.097900390625	-1089.320190429688	-205.9659881591797	1802.888427734375	-732.0232543945314	-309.7507934570313	1748.282592773438	-599.0856933593751	-297.1532287597657	1703.355224609375	-583.4200439453126	-349.8080749511719	1711.210693359375	-555.2367553710939	-382.7566528320313	1636.892333984375	-504.7919311523439	-453.9120178222657	1625.538818359375	-565.4243774414064	-346.1180725097657	1418.129760742188	-665.0988769531251	-306.7098388671876	1398.483642578125	-603.4072875976564	-281.2786254882813	1393.046752929688	-709.0049438476564	-227.2617645263672	1364.550170898438	-1019.48876953125	-216.9369812011719	1365.152465820313	-778.6086425781252	-398.5924377441407	1411.320434570313	-890.596862792969	-411.4865112304689	1381.966796875	-917.4312744140627	-412.7298889160157	1381.395141601563	-861.5794067382815	-302.4410400390626	1031.554809570313	-1102.009155273438	-275.2240600585938	951.4067993164065	-1097.696655273438	-229.5841522216797	949.2102661132815	-1077.457763671875	-308.5597839355469	902.4411621093752	-1093.817260742188	-318.1289367675782	842.2224731445315	-1100.710571289063	-294.3417053222657	820.5246582031252	-966.6135864257815	-287.2550048828126	635.0835571289064	-1082.188110351563	-359.1905212402344	608.4942016601564	-1123.28369140625	-317.7336120605469	594.2932739257814	-1114.640625	-320.1999206542969	512.5402832031251	-1090.351440429688	-402.2720642089845	407.3004760742189	-1112.033325195313	-373.1307067871094	420.7507324218751	-1030.368408203125	-461.3941955566407	411.9476928710939	-1064.27783203125	-279.0426635742188	280.1365661621094	-1039.32763671875	-281.9883728027344	277.1817016601563	-1078.289916992188	-329.5331420898438	273.3831787109376	-1124.514404296875	-311.0126342773438	1118.359375	-685.1699218750001	-276.3578491210938	1062.145385742188	-681.4367675781251	-243.3545989990235	1062.868286132813	-686.1019287109376	-306.3266296386719	984.0541992187502	-694.1038818359376	-299.1657714843751	832.628845214844	-697.4373168945314	-275.2527465820313	809.3703613281252	-824.3704223632815	-243.160629272461	663.3943481445314	-758.4502563476564	-279.3440551757813	588.2598876953126	-689.6517944335939	-246.1030426025391	583.4083862304689	-724.3289184570314	-256.4156799316407	534.4975585937501	-753.8579101562501	-319.7597961425782	401.5899047851564	-704.8928222656251	-286.4056396484376	424.148406982422	-786.3984375000002	-378.5524597167969	405.6482849121095	-773.8923339843752	-184.0943145751953	292.4954528808594	-761.7346191406251	-192.8260955810547	282.1615600585938	-721.9387207031251	-249.8839721679688	271.2313842773438	-689.2231445312501	
866	4.325	-129.58935546875	1997.391235351563	-951.3603515625002	-261.9450378417969	1950.305908203125	-967.0183715820315	-276.5264282226563	1935.768920898438	-832.8198852539065	-310.9076538085938	1855.386474609375	-896.0283203125002	-387.3944702148439	1517.42626953125	-898.947692871094	-187.5567626953125	1768.952270507813	-898.7528076171877	-229.6198272705079	1805.014892578125	-1068.969604492188	-326.7384948730469	1746.009765625	-1178.304077148438	-313.4958801269532	1699.44189453125	-1193.0615234375	-366.1866149902344	1708.918701171875	-1222.540649414063	-419.1034545898439	1629.74853515625	-1276.260620117188	-489.5653686523439	1625.678466796875	-1229.008056640625	-362.9541320800782	1410.05615234375	-1125.8857421875	-343.0140991210938	1387.454467773438	-1193.09814453125	-310.9442749023438	1389.820068359375	-1089.075561523438	-205.6454772949219	1801.268798828125	-732.1684570312501	-308.9421386718751	1746.55712890625	-599.0282592773439	-296.5171203613282	1701.447998046875	-583.4353027343751	-349.0503540039063	1709.66845703125	-555.1481933593751	-382.1401062011719	1635.442138671875	-504.7458801269532	-453.5650329589845	1624.070434570313	-565.1437988281251	-346.4047241210938	1416.669677734375	-665.0543823242189	-306.9161071777344	1396.724365234375	-603.2263793945314	-281.8026123046876	1391.346435546875	-708.7978515625001	-228.2448272705079	1363.334594726563	-1019.013610839844	-217.8670043945313	1363.700073242188	-778.5654907226565	-399.3418579101564	1411.27197265625	-890.322204589844	-412.1699829101564	1381.824096679688	-917.1714477539065	-413.4348449707032	1381.238891601563	-861.3115844726565	-302.9294128417969	1030.084594726563	-1101.964233398438	-275.4605712890626	950.1594238281252	-1097.8017578125	-229.6381378173829	948.0818481445315	-1077.712524414063	-308.4974975585938	900.9268188476565	-1093.756469726563	-317.2289733886719	840.7740478515627	-1100.742431640625	-294.1081848144532	819.0965576171877	-966.4091796875002	-286.2375793457032	633.4935302734376	-1081.29150390625	-356.1951599121094	606.8659667968751	-1124.218627929688	-316.5571289062501	592.6436767578126	-1114.402709960938	-319.3009033203126	511.1955871582032	-1089.881469726563	-401.3126525878907	405.6698303222657	-1112.438720703125	-372.9265747070313	419.5218200683595	-1030.4775390625	-460.9245910644532	409.9454345703126	-1065.253662109375	-277.9638977050782	279.6505432128907	-1038.149291992188	-280.4932250976563	276.6398925781251	-1076.996704101563	-327.8094787597657	272.2019042968751	-1123.970092773438	-311.3884887695313	1116.971923828125	-684.8151855468751	-276.6078491210938	1060.838012695313	-680.9053955078126	-243.5838012695313	1061.63134765625	-685.5684814453126	-306.3477172851563	982.7689208984377	-693.8264770507814	-298.4777832031251	831.3670654296877	-697.0698242187501	-274.8381958007813	808.0048828125002	-824.0982055664065	-242.2330474853516	662.2830810546876	-758.2525024414064	-277.8058776855469	586.9797363281251	-689.3215942382814	-244.8437194824219	582.1709594726564	-724.1633300781251	-255.2177734375001	533.2877197265626	-753.5226440429689	-317.8423767089844	400.2075805664064	-704.2086181640626	-284.8653869628907	422.7883605957032	-785.9680175781252	-376.9518737792969	404.3003845214845	-772.7647705078127	-182.1982727050782	291.3213195800782	-761.6939086914064	-190.9157104492188	281.0825500488282	-722.0336914062501	-247.8477172851563	270.0155029296876	-689.0584106445314	
867	4.33	-129.5419464111328	1995.799194335938	-951.6128540039065	-261.9468994140626	1948.665405273438	-967.158386230469	-276.1087951660157	1934.020263671875	-832.9014282226565	-310.6732788085938	1853.618774414063	-896.0863037109377	-388.0527343750001	1516.140258789063	-898.7344360351565	-187.466552734375	1766.929077148438	-898.939880371094	-229.616928100586	1802.97314453125	-1069.087036132813	-326.9022216796876	1744.447387695313	-1178.197143554688	-313.9994201660157	1697.823608398438	-1193.200439453125	-366.4663391113282	1707.393798828125	-1222.498168945313	-419.6102600097657	1628.217407226563	-1276.091674804688	-490.0341796875001	1624.19677734375	-1228.660522460938	-364.0167236328126	1408.410522460938	-1125.578125	-343.9227905273438	1385.736083984375	-1192.877319335938	-312.0169372558594	1388.480590820313	-1088.811889648438	-205.2746582031251	1799.302368164063	-732.2624511718751	-308.0882568359376	1744.631103515625	-598.8660888671876	-295.8533020019532	1699.42822265625	-583.5377807617189	-348.1118774414063	1707.624877929688	-554.8486328125001	-381.5897216796876	1633.668334960938	-504.1199645996095	-453.1740722656251	1622.633911132813	-564.7377319335939	-346.7188720703126	1414.656982421875	-664.6119384765626	-307.1978454589844	1394.698608398438	-602.9282226562501	-282.3487854003907	1389.4267578125	-708.5562133789064	-229.1881866455079	1361.928955078125	-1018.492248535156	-218.7314147949219	1361.951782226563	-778.5186767578127	-400.0292053222657	1410.902954101563	-890.0585937500002	-412.8829956054689	1381.491821289063	-916.8502197265627	-414.0077209472657	1380.906127929688	-861.1177368164065	-303.5025024414063	1028.444580078125	-1101.930541992188	-275.3993225097657	948.6119384765627	-1097.776489257813	-229.5536499023438	946.6824951171877	-1077.760620117188	-308.0417175292969	899.1367797851565	-1093.751831054688	-316.0490722656251	838.9304199218752	-1100.816528320313	-293.8952636718751	817.5898437500002	-966.3362426757815	-285.3518066406251	631.7450561523439	-1080.551635742188	-354.6845397949219	605.1823730468751	-1124.472900390625	-315.0154418945313	590.8312988281251	-1113.938720703125	-318.3997497558594	509.2561645507814	-1089.482421875	-400.2949218750001	403.7514648437501	-1112.806762695313	-372.9185485839844	418.0139160156251	-1030.62353515625	-460.5637817382814	407.8025207519532	-1066.256591796875	-276.7899780273438	278.7165222167969	-1037.16552734375	-278.6958618164063	275.7097778320313	-1075.953247070313	-325.6051940917969	270.8465576171876	-1123.33447265625	-311.7640686035157	1115.423583984375	-684.6248779296876	-276.9291076660157	1059.434814453125	-680.6527709960939	-243.8066864013672	1060.296630859375	-685.0138549804689	-306.3570861816407	981.1779785156252	-693.5758666992189	-297.7879638671876	829.7055664062502	-696.6780395507814	-274.3996276855469	806.5693359375002	-823.769226074219	-241.115951538086	660.6549072265626	-757.9635009765626	-276.4763488769532	585.4766845703126	-688.9213867187501	-243.5670013427735	580.6975097656251	-723.8948974609376	-253.9538116455079	531.7229614257814	-753.1365966796876	-315.9877624511719	398.7068481445314	-703.3637084960939	-283.8077087402344	421.3206787109376	-785.4180297851565	-375.7924499511719	402.5186157226564	-771.719421386719	-180.8295593261719	290.0893249511719	-761.6017456054689	-188.9249725341797	279.6924133300782	-721.8060302734376	-245.7141113281251	268.6268005371094	-688.4395141601564	
868	4.335	-129.4683685302735	1993.693237304688	-951.9075317382815	-261.6544189453126	1946.77490234375	-967.2479248046877	-275.8508605957032	1932.0888671875	-833.0651855468752	-310.3701171875001	1851.759887695313	-896.175720214844	-388.8715820312501	1514.869506835938	-898.512634277344	-187.2863922119141	1764.7763671875	-899.0637817382815	-229.4153594970704	1800.70947265625	-1069.27880859375	-327.0507812500001	1742.514526367188	-1178.121459960938	-314.0759887695313	1696.034912109375	-1193.289672851563	-366.9484558105469	1705.710083007813	-1222.462768554688	-420.1038818359376	1626.445068359375	-1275.895141601563	-490.5732421875001	1622.645751953125	-1228.476196289063	-365.0747070312501	1406.628662109375	-1125.419799804688	-344.6207885742188	1383.621826171875	-1191.904907226563	-312.8778381347657	1386.7333984375	-1088.555297851563	-204.8191986083985	1797.070190429688	-732.3339233398439	-307.2696838378907	1742.436889648438	-598.5720214843751	-295.0799255371094	1697.105590820313	-583.4635009765626	-347.2102661132813	1705.413696289063	-554.5261230468751	-380.9803161621094	1631.603149414063	-503.8607177734376	-452.8653869628907	1620.843383789063	-564.3652343750001	-346.7958679199219	1412.534423828125	-664.2369995117189	-307.4712219238282	1392.504272460938	-602.7152709960939	-282.9817199707032	1387.232055664063	-708.3085937500001	-230.3168945312501	1360.141235351563	-1018.006896972656	-219.6605224609376	1359.98095703125	-778.5505371093752	-400.8280639648439	1410.367797851563	-889.8357543945315	-413.5597229003907	1380.956298828125	-916.6021118164065	-414.611053466797	1380.443359375	-860.916687011719	-303.7365112304688	1026.518676757813	-1101.9462890625	-275.2622375488282	946.7902832031252	-1097.840454101563	-229.4496459960938	945.090270996094	-1077.84765625	-307.6495971679688	897.1602783203127	-1093.749389648438	-314.9715576171876	836.9624633789065	-1100.895629882813	-293.4116210937501	815.6102294921877	-966.2121582031252	-284.3784790039063	629.7080688476564	-1079.895629882813	-353.2379150390626	603.1940307617189	-1124.736938476563	-313.6825256347657	588.8712768554689	-1113.723266601563	-317.6589050292969	507.4575500488282	-1089.019287109375	-399.3010253906251	401.6934814453126	-1113.220458984375	-372.7001953125001	416.2366943359376	-1030.789184570313	-460.0519409179689	405.2985229492189	-1067.314575195313	-275.7443847656251	277.6257934570313	-1036.330688476563	-277.7309570312501	274.4426879882813	-1075.103271484375	-323.4341430664063	269.2739562988282	-1122.88623046875	-312.2796020507813	1113.49267578125	-684.4971313476564	-277.3243408203126	1057.574340820313	-680.2767333984376	-244.1084442138672	1058.573852539063	-684.5109252929689	-306.3569641113282	979.371032714844	-693.4869384765626	-297.0170288085938	827.9903564453127	-696.3608398437501	-274.6271667480469	804.7203369140627	-823.4612426757815	-240.4172058105469	659.0292968750001	-757.8327636718751	-275.0530090332032	583.6523437500001	-688.5089721679689	-242.3818359375001	578.8859252929689	-723.6033325195314	-252.8894958496094	529.9234619140626	-752.9661254882814	-314.4965209960938	396.9948730468751	-702.5341796875001	-282.7964172363282	419.3421936035157	-784.9673461914065	-374.7185974121094	400.4844665527345	-770.0902099609377	-179.499008178711	288.4347534179688	-761.6301269531251	-187.2832794189453	278.3284301757813	-721.5148925781251	-243.7982330322266	267.2310791015626	-687.7240600585939	
